<svg xmlns="http://www.w3.org/2000/svg" width="22" height="21" viewBox="0 0 22 21">
    <g fill="none" fill-rule="evenodd">
        <path fill="#00D1A2" d="M17.037.626V.61.582.521c0-.009 0-.016-.005-.024s0-.012 0-.018l-.006-.022c0-.007 0-.013-.007-.02L17.013.42a.193.193 0 0 0-.011-.024V.384a.38.38 0 0 0-.13-.147h-.004l-.02-.009h-.01l-.016-.006H5.261c-.147 0-.275.145-.303.347V.612L4 14.028v.045c0 .242.14.438.313.438h11.553l.024-.005h.01l.02-.007.011-.006.015-.008.014-.008.013-.01.013-.01.013-.01a.107.107 0 0 0 .011-.012l.012-.012.011-.013.011-.015.01-.012a.176.176 0 0 1 .012-.018l.008-.013a.177.177 0 0 1 .01-.02s0-.009.007-.014a.133.133 0 0 0 .008-.02.105.105 0 0 0 .007-.016.235.235 0 0 1 .007-.021c0-.005 0-.01.005-.017l.006-.021v-.081-.022L17.023.687v-.02-.026l.014-.015z"/>
        <path fill="#00C39A" d="M17.037.626V.61.582.521c0-.009 0-.016-.005-.024s0-.012 0-.018l-.006-.022c0-.007 0-.013-.007-.02L17.013.42a.193.193 0 0 0-.011-.024V.384a.38.38 0 0 0-.13-.147h-.004l-.02-.009h-.01l-.016-.006H15.436h.047l.015.006h.011l.018.01h.006a.35.35 0 0 1 .113.118l.016.028.005.012a.179.179 0 0 1 .01.024l.006.017.008.02c0 .007 0 .014.005.022a.14.14 0 0 1 0 .018v.024a.14.14 0 0 1 0 .018V.61a.1.1 0 0 0 0 .017v.046l-.834 13.433V14.207a.158.158 0 0 1-.005.022l-.006.017c0 .007 0 .014-.008.02l-.006.016-.009.02a.07.07 0 0 1-.007.015.168.168 0 0 1-.01.02l-.008.013a.148.148 0 0 1-.011.017l-.01.013-.01.015-.011.012-.012.013-.013.012-.012.01-.013.01-.013.01-.013.008-.016.008-.012.005-.019.007h-.01a.094.094 0 0 1-.024.006h-.036H15.857a.094.094 0 0 0 .024-.006h.01l.02-.007.011-.005.015-.008.013-.008.014-.01.013-.01.013-.01.01-.012.013-.013.011-.012.011-.015.01-.013.01-.017.01-.013a.197.197 0 0 1 .01-.02s0-.01.007-.014a.115.115 0 0 0 .008-.02.096.096 0 0 0 .006-.016c0-.007 0-.014.008-.02a.095.095 0 0 1 .005-.018l.006-.022v-.018V14.147 14.105L17.013.672v-.02-.026h.024z"/>
        <path fill="#00D1A2" d="M21.62 14.514a1.633 1.633 0 0 1-.942-.29 216.918 216.918 0 0 1-.367 4.03V18.307c0 .007 0 .015-.007.023v.01a.327.327 0 0 1-.013.033c0 .009-.01.019-.014.028v.007l-.012.02-.007.01-.012.018-.01.009-.012.014-.01.01-.013.012-.011.009-.013.01-.012.007-.015.009-.012.006-.015.007h-.012l-.018.005h-.01l-.024.005h-.007a.149.149 0 0 1-.03 0h1.253a.15.15 0 0 0 .03 0h-.01l.024-.005h.01l.018-.005h.013l.015-.007.013-.006.013-.009.012-.008.013-.01.012-.008.012-.012.01-.01.013-.014.009-.01.012-.017.003-.002.013-.02v-.008a.343.343 0 0 0 .027-.061v-.01c0-.008.005-.016.007-.023v-.016V18.26v-.016c.013-.12.226-2.192.343-3.724l-.267-.007z"/>
        <path fill="#FF9092" d="M21.984 13.12c0-2.497-1.53-4.566-3.511-4.899l-.123-.017-.055-.007-.144-.014h-.054c-.062 0-.122-.006-.184-.006h-1.346l-.273 3.804-.157 2.19v.09l-.006.018s0 .01-.005.014a.153.153 0 0 0-.007.02s0 .007-.007.012a.16.16 0 0 1-.015.03l-.01.017a.075.075 0 0 0-.008.012l-.011.014-.01.011a.07.07 0 0 1-.012.014l-.01.01-.013.011-.01.01-.014.01a.055.055 0 0 1-.013.008l-.013.008-.013.007-.016.007-.012.006H15.903l-.024.005H4.326c-.173 0-.313-.17-.313-.38l-.32 4.019v.076a.365.365 0 0 0 0 .037V18.294c.014.054.039.105.074.148l.01.013a.366.366 0 0 0 .073.06l.017.01.024.01a.129.129 0 0 0 .028.009h17.376l.024-.005h.01l.018-.005h.013l.015-.008.012-.006.014-.008.012-.008.013-.01.011-.009.014-.01.01-.011.012-.015.009-.009.012-.017.003.013.013-.02v-.008a.395.395 0 0 0 .027-.061v-.01c0-.007.005-.016.007-.024v-.015V18.245c.013-.12.226-2.192.343-3.724v-.011l.024-.33-.022.302.023-.307c.052-.456.072-.827.072-1.055"/>
        <path fill="#4D585F" d="M7.746 20.727c-1.151 0-2.087-1.137-2.087-2.536s.936-2.536 2.087-2.536c1.152 0 2.088 1.137 2.088 2.536s-.937 2.536-2.088 2.536"/>
        <path fill="#F2F6FA" d="M7.746 19.205c-.46 0-.835-.454-.835-1.014s.375-1.014.835-1.014c.461 0 .836.455.836 1.014 0 .559-.375 1.014-.836 1.014"/>
        <path fill="#4D585F" d="M17.495 20.727c-1.15 0-2.088-1.137-2.088-2.536s.937-2.536 2.088-2.536c1.15 0 2.088 1.137 2.088 2.536s-.937 2.536-2.088 2.536"/>
        <path fill="#F2F6FA" d="M17.495 19.205c-.46 0-.834-.454-.834-1.014s.373-1.014.834-1.014c.46 0 .835.455.835 1.014 0 .559-.374 1.014-.835 1.014M18.39 9.19c.665.343 1.753 1.084 2.312 2.437.145.353-.07.769-.395.769h-2.266c-.26 0-.462-.272-.437-.586l.176-2.182c.03-.36.337-.58.61-.439"/>
        <path fill="#00D1A2" d="M8.889 5.985H1.212a.458.458 0 0 1-.454-.462c0-.254.203-.461.454-.461H8.89c.25 0 .454.207.454.461a.458.458 0 0 1-.454.462M10.556 8.292H2.879a.458.458 0 0 1-.455-.461c0-.255.204-.462.455-.462h7.677c.25 0 .454.207.454.462a.458.458 0 0 1-.454.461M8.131 10.138H.455A.458.458 0 0 1 0 9.676c0-.255.204-.461.455-.461H8.13c.251 0 .455.206.455.461a.458.458 0 0 1-.455.462"/>
        <path fill="#F2F4F8" d="M7.323 9.215H2.071a.458.458 0 0 1-.455-.462c0-.254.204-.461.455-.461h5.252c.251 0 .455.207.455.461a.458.458 0 0 1-.455.462"/>
    </g>
</svg>
